<svg width="90" height="24" viewBox="0 0 90 24" fill="none" xmlns="http://www.w3.org/2000/svg">
<path d="M6.96986 12.2257L6.96986 12.9166C6.96986 13.4014 7.09074 13.8779 7.32075 14.3034L7.36826 14.3879L7.59238 14.7717C7.78777 15.1061 8.09313 15.3623 8.45631 15.4969C8.89362 15.6589 9.37735 15.6309 9.79135 15.4223L9.87311 15.3782C10.4003 15.0749 10.7631 14.5505 10.8611 13.9502L11.0375 12.8697L11.288 10.1057L11.288 8.38403C11.288 7.96658 11.1222 7.56616 10.8271 7.27098L10.7274 7.17152L10.6655 7.11323C10.3476 6.83382 9.91294 6.72278 9.49722 6.81871C9.2131 6.8843 8.95869 7.04209 8.77372 7.26751L8.26798 7.88387L8.20623 7.9612C7.90304 8.3518 7.68189 8.80009 7.5566 9.27912L7.14781 10.8419L7.10626 11.012C7.01566 11.41 6.96987 11.8171 6.96986 12.2257ZM77.7606 14.6023C77.6018 14.9108 77.7495 15.3202 78.0799 15.2143L78.114 15.2024L79.6458 14.6324C79.9503 14.5191 80.2312 14.3508 80.4743 14.1359L80.5224 14.0922L81.5364 13.1506C81.9627 12.7548 82.2826 12.2581 82.4665 11.7063L82.9809 10.1631C83.1005 9.80431 82.9981 9.40867 82.7193 9.15313L82.6885 9.12639C82.3675 8.85611 81.9057 8.82534 81.5507 9.05502L80.6669 9.62693C80.3265 9.84722 80.0496 10.1528 79.8641 10.5134L77.7606 14.6023ZM5 12.2257C5.00001 11.6302 5.07159 11.0371 5.21295 10.4589L5.2422 10.3435L5.65098 8.78069C5.84371 8.0438 6.18375 7.35417 6.65015 6.75331L6.74518 6.63423L7.25092 6.01807C7.71199 5.45614 8.34612 5.06269 9.05438 4.89925C10.1251 4.65217 11.246 4.95623 12.0442 5.7047L12.1204 5.77857L12.2198 5.87803C12.8844 6.54263 13.2579 7.44413 13.2579 8.38403L13.2579 10.1494C13.2579 10.1791 13.2565 10.2087 13.2538 10.2383L13.0729 12.2372C13.0638 12.3376 13.1868 12.3929 13.2557 12.3193L13.2602 12.3147L14.4665 11.0464C15.0898 10.3912 15.8413 9.87117 16.6741 9.51882L17.4759 9.17967C18.1393 8.89904 18.8679 8.81332 19.5764 8.93132L19.7178 8.95767C20.6444 9.14835 21.4652 9.67826 22.0203 10.4416L22.0732 10.5163L22.2548 10.779C22.2737 10.8065 22.2924 10.8341 22.3107 10.8619C22.6541 11.3828 23.4806 11.543 23.8678 11.0537C24.3547 10.4386 24.9929 9.96171 25.7188 9.66887L25.8652 9.61269L26.2915 9.45764C26.8654 9.24896 27.4873 9.21425 28.0794 9.35646L28.1973 9.38743C28.9571 9.60177 29.6061 10.0968 30.0135 10.7708L30.0521 10.8366L30.1212 10.9576C30.4189 11.4786 30.5756 12.0684 30.5756 12.6685C30.5756 13.1462 31.1583 13.3797 31.4881 13.034L32.8047 11.6541L32.8484 11.6108L35.1582 9.47457L35.2082 9.43148L36.7572 8.18031C37.5747 7.51997 38.4752 6.9693 39.4355 6.54247L40.2166 6.19544C40.7493 5.95869 41.3131 5.79945 41.8909 5.7224L42.2378 5.67604C43.245 5.54175 44.2692 5.71799 45.1735 6.1812C45.9362 6.57181 46.5845 7.15173 47.0572 7.86406L47.1494 8.00814L47.1767 8.05238C47.6788 8.86841 47.9446 9.8078 47.9446 10.766L47.9446 11.4204C47.9446 11.701 48.4523 11.8941 48.6377 11.6834C48.9195 11.3633 49.2277 11.0661 49.5594 10.7952L49.7198 10.6677L50.1138 10.3627C50.8904 9.76168 51.8056 9.36523 52.7752 9.20968L53.4989 9.09349C54.1243 8.99319 54.7653 9.07274 55.3472 9.3228C56.2756 9.72174 56.9719 10.5185 57.2445 11.4879L57.2696 11.5824C57.313 11.7561 57.5461 11.7879 57.6346 11.6323L57.7655 11.4023C57.8058 11.3315 57.8506 11.2633 57.8998 11.1984L57.9504 11.1347L58.8391 10.0628C59.38 9.41052 60.1336 8.96981 60.9673 8.81821L61.2268 8.77108C62.1423 8.60461 63.0822 8.86228 63.7838 9.46861L63.8509 9.52844C64.2768 9.91886 64.5832 10.4211 64.7362 10.9766L64.7649 11.0884L65.1509 12.7289C65.1832 12.8661 65.367 12.9312 65.4626 12.8276L66.8413 11.3338C66.9901 11.1726 67.1575 11.0297 67.3397 10.9079L67.4186 10.8569L69.5372 9.54229C70.1368 9.17013 70.8286 8.97289 71.5343 8.97288C72.8164 8.97288 74.0085 9.62102 74.7061 10.69L74.7721 10.7948L75.3962 11.8228C75.399 11.8274 75.4017 11.8321 75.4044 11.8367C75.7649 12.4529 76.6637 12.4286 76.9903 11.7938L78.1126 9.61212C78.4556 8.94546 78.9673 8.38023 79.5968 7.97294L80.4805 7.40122C81.565 6.69949 82.9761 6.79325 83.9568 7.61898L84.0503 7.70112C84.9019 8.48174 85.2149 9.69001 84.8496 10.786L84.3352 12.3293C84.0468 13.1946 83.5452 13.9735 82.8769 14.5941L81.8629 15.5358L81.7788 15.6118C81.3544 15.9869 80.8642 16.2808 80.3328 16.4786L78.8009 17.0486L78.7405 17.0703C77.4768 17.5075 76.0787 16.9689 75.4362 15.7922L73.7102 12.8416L73.0883 11.8171L73.0566 11.7669C72.7217 11.2538 72.1496 10.9427 71.5343 10.9427C71.1957 10.9428 70.8637 11.0373 70.576 11.2159L68.4574 12.5308L68.4118 12.5611C68.3672 12.5931 68.326 12.6297 68.2887 12.67L66.4996 14.608L66.4415 14.6686C65.648 15.4622 64.4815 15.341 63.7924 14.6835C62.9906 13.9185 63.1012 12.6183 62.8473 11.5397L62.8371 11.4997C62.7823 11.3005 62.6724 11.1206 62.5197 10.9806L62.471 10.9385C62.2225 10.736 61.8967 10.6513 61.5792 10.709L61.3197 10.7563C60.942 10.825 60.6006 11.0246 60.3555 11.3202C59.7679 12.029 59.2434 12.7879 58.7879 13.5882L58.4145 14.2444L58.3764 14.3081C57.8651 15.1222 56.8715 15.1456 56.2484 14.6699C55.5043 14.1018 55.5856 12.9683 55.3586 12.06L55.3368 11.9831C55.2178 11.6025 54.9382 11.2911 54.5695 11.1326C54.3306 11.03 54.0674 10.9974 53.8107 11.0385L53.0872 11.1547C52.4432 11.258 51.8352 11.5213 51.3194 11.9206L50.9254 12.2255L50.8054 12.3209C50.2121 12.8054 49.7194 13.4023 49.3557 14.0776L49.0575 14.631L48.9905 14.7536C48.2906 16.0138 47.3448 17.1213 46.2087 18.0102L45.7112 18.3994L45.6495 18.444C45.5861 18.4861 45.518 18.5208 45.4465 18.5473L44.2286 18.9984L44.1534 19.0252C43.3734 19.2907 42.5168 19.2236 41.7865 18.837L41.6713 18.7728C41.1032 18.4393 40.6597 17.9271 40.4114 17.3144L40.0167 16.3403L39.9988 16.2927C39.8278 15.8005 40.0712 15.2555 40.5595 15.0575C41.0479 14.8596 41.6022 15.0815 41.8221 15.5538L41.8423 15.6004L42.237 16.5746C42.322 16.7844 42.474 16.9598 42.6685 17.0739L42.7079 17.0959C42.95 17.224 43.2325 17.2497 43.4926 17.1688L43.5444 17.1513C44.0701 16.9565 44.4935 16.5553 44.7161 16.0408L45.0618 15.242C45.3541 14.5664 45.5786 13.8635 45.7318 13.1435L45.8539 12.5692C45.9343 12.1916 45.9748 11.8065 45.9748 11.4204L45.9748 10.766C45.9747 10.1724 45.8101 9.59039 45.499 9.08483L45.4717 9.04059L45.4159 8.95325C45.1297 8.52203 44.7372 8.17094 44.2756 7.93446C43.728 7.65402 43.1078 7.54729 42.4981 7.62859L42.1514 7.67496C41.7598 7.72717 41.3776 7.83519 41.0166 7.99564L40.2356 8.34267C39.4322 8.69973 38.679 9.16033 37.9951 9.71273L36.4707 10.9439L34.2081 13.0367L31.6927 15.6731L31.6397 15.7264C30.5159 16.8174 28.6057 16.0274 28.6057 14.4366L28.6057 12.6685C28.6057 12.4112 28.5385 12.1582 28.4108 11.9348L28.3418 11.814L28.3129 11.7661C28.1631 11.5314 27.9318 11.3592 27.6625 11.2832L27.6194 11.2719C27.4026 11.2198 27.1748 11.2326 26.9646 11.309L26.5383 11.4641L26.4558 11.4956C26.0466 11.6607 25.6868 11.9297 25.4124 12.2764L24.7639 13.0957C24.391 13.5668 24.0777 14.0821 23.8313 14.6301L23.8001 14.6953C23.3167 15.6539 22.1182 15.6182 21.543 14.9618C21.089 14.4437 21.1737 13.6591 21.0661 12.9788L21.0536 12.9063C20.9861 12.545 20.8433 12.2016 20.6341 11.8988L20.4525 11.636L20.4009 11.5651C20.1349 11.2171 19.7517 10.9758 19.3208 10.8871L19.2529 10.8744C18.9124 10.8177 18.5622 10.8589 18.2435 10.9937L17.4415 11.3331C16.8576 11.5801 16.3309 11.9448 15.8939 12.4042L14.692 13.6677L12.321 16.1931L12.2695 16.2443C12.216 16.2933 12.1572 16.3363 12.0942 16.3726L10.8557 17.0855L10.7672 17.1347C9.84684 17.631 8.75562 17.7086 7.77205 17.3442L7.69837 17.3159C6.94019 17.0162 6.30367 16.4705 5.89163 15.7653L5.66733 15.3815L5.58788 15.2401C5.20252 14.5272 5 13.7288 5 12.9166L5 12.2257Z" fill="white"/>
</svg>
